<?xml version="1.0" standalone="no"?>
<!DOCTYPE svg PUBLIC "-//W3C//DTD SVG 20010904//EN"
 "http://www.w3.org/TR/2001/REC-SVG-20010904/DTD/svg10.dtd">
<svg version="1.0" xmlns="http://www.w3.org/2000/svg"
 width="512.000000pt" height="512.000000pt" viewBox="0 0 512.000000 512.000000"
 preserveAspectRatio="xMidYMid meet">
<metadata>
Created by potrace 1.14, written by Peter Selinger 2001-2017
</metadata>
<g transform="translate(0.000000,512.000000) scale(0.100000,-0.100000)"
fill="#000000" stroke="none">
<path d="M2379 5116 c-2 -2 -35 -6 -74 -9 -89 -8 -278 -41 -375 -67 -80 -20
-105 -42 -105 -89 -1 -13 -7 -25 -15 -27 -8 -1 -41 -12 -72 -23 -42 -14 -58
-16 -58 -8 0 13 -53 49 -67 46 -20 -4 -115 -44 -181 -77 -214 -105 -322 -344
-257 -567 33 -116 90 -186 267 -329 l97 -79 0 -219 -1 -218 -27 -6 c-90 -19
-177 -71 -231 -139 -66 -83 -90 -156 -86 -266 2 -68 7 -88 40 -153 21 -41 52
-88 70 -104 28 -25 122 -86 136 -88 3 0 23 -6 45 -12 22 -7 55 -12 73 -12 28
0 35 -5 44 -32 22 -64 95 -195 142 -257 65 -84 147 -163 229 -222 l68 -48 -38
-6 c-141 -24 -347 -105 -463 -183 -55 -36 -206 -161 -225 -185 -5 -6 -33 -39
-60 -72 -68 -80 -126 -173 -170 -269 -37 -81 -82 -222 -91 -286 -3 -19 -7 -41
-10 -49 -8 -25 -16 -285 -9 -329 5 -36 12 -45 41 -59 l34 -17 0 -73 c0 -59 -3
-73 -15 -73 -9 0 -26 -11 -39 -23 -23 -23 -24 -28 -24 -228 -1 -185 1 -207 18
-229 l19 -25 1544 -3 c1511 -2 1545 -2 1568 17 l24 19 0 494 c-1 464 -2 499
-22 593 -77 360 -289 652 -604 833 -123 70 -271 124 -402 147 l-38 6 68 48
c145 103 278 265 348 426 l34 80 50 6 c140 18 249 97 313 226 54 110 47 249
-17 359 -29 49 -99 121 -126 129 -11 4 -19 10 -19 15 0 9 -78 37 -120 43 l-25
4 -2 219 -2 218 28 26 c16 14 46 39 67 56 22 18 64 53 95 78 72 58 112 108
149 188 94 201 33 443 -146 578 -75 57 -397 190 -515 214 -13 2 -60 14 -104
25 -44 11 -123 27 -175 35 -52 8 -111 18 -130 21 -37 6 -465 16 -471 11z"/>
</g>
</svg>
